<svg xmlns="http://www.w3.org/2000/svg" xmlns:svg="http://www.w3.org/2000/svg" viewBox="0 0 312 320" >
	<g id="g3164">
		<path id="path3160" style="fill-rule:evenodd;fill: #f9ca24;" d="m154.11 61.299c-25.38 43.631-81.062 140.52-115.15 198.79-1.349 2.3 1.137 7.3 3.811 7.27 41.745-0.41 184.06 0.24 228.05 0.17 2.44 0 4.85-5.15 3.64-7.27-28.12-49-90.41-157.97-114.11-198.79-0.94-1.616-5.3-1.788-6.24-0.171z"/>
		<path id="path2384" style="fill-rule:evenodd;fill: #ffffff;" d="m158.44 98.182c-3.7-0.068-9.24 1.172-13.03 4.388-3.91 3.31-5.47 5.8-5.5 8.95-0.2 25.94 6.15 87.25 6.15 87.25s2.34 9.63 11.69 9.2c8.91-0.43 11.39-7.98 11.39-7.98 0.08 0 6.44-62.62 6.1-88.47-0.04-3.1-1.22-4.94-5.07-8.46-3.39-3.097-8.35-4.816-11.73-4.878z"/>
		<path id="path3156" style="fill-rule:evenodd;fill: #ffffff;" d="m172.64 236.28a14.459 12.035 0 1 1 -28.92 0 14.459 12.035 0 1 1 28.92 0z" transform="matrix(1.018 0 0 1 -2.9282 -.34632)" />
	</g>
</svg>