<svg xmlns="http://www.w3.org/2000/svg" xmlns:svg="http://www.w3.org/2000/svg" viewBox="0 0 60 60" y="0" x="0">
	<path id="path838" style="fill-rule:evenodd;fill:#3498db" d="m30.094 2.9375c-15.091 0-27.344 12.254-27.344 27.344s12.253 27.343 27.344 27.343c15.09 0 27.344-12.253 27.344-27.344 0-15.09-12.254-27.344-27.344-27.344zm0 5.9687c1.326 0 2.435 0.4664 3.375 1.4058 0.94 0.94 1.406 2.064 1.406 3.407 0 1.393-0.466 2.577-1.406 3.5s-2.049 1.375-3.375 1.375c-1.309 0-2.435-0.467-3.375-1.406-0.94-0.94-1.438-2.11-1.438-3.469 0-1.309 0.498-2.419 1.438-3.375 0.94-0.957 2.066-1.4378 3.375-1.4378zm0 14.469c1.191 0 2.136 0.413 2.875 1.219 0.755 0.789 1.125 1.777 1.125 2.968v19.907c0 1.191-0.37 2.177-1.125 3-0.739 0.805-1.684 1.219-2.875 1.219-1.175 0-2.151-0.414-2.906-1.219-0.739-0.823-1.126-1.809-1.126-3v-19.907c0-1.191 0.387-2.179 1.126-2.968 0.755-0.806 1.731-1.219 2.906-1.219z" />
</svg>